# xmcd
# Copyright (C) 1995-1998 Ti Kan
#
# Track frame offsets:
#       150
#       14803
#       32079
#       54836
#       73775
#       103157
#       126899
#       141229
#       157296
#       173916
#       191433
#       203538
#       217760
#       237279
#       256201
#       273330
#
# Disc length: 3750 seconds
#
# Revision: 0
# Processed by: cddbd v1.5.2PL0 Copyright (c) Steve Scherf et al.
# Submitted via: CD-Import v1.0
#
DISCID=e90ea410
DTITLE=Kompil - Kompil
DYEAR=09
DGENRE=
TTITLE0=La Tua Mano
TTITLE1=Circus
TTITLE2=5/1
TTITLE3=Nothing Empire
TTITLE4=Ayacucho Calle Central
TTITLE5=Viento Del Norte
TTITLE6=Scarecrow's Dance
TTITLE7=Tempest In A Shrubbery
TTITLE8=Uf Mim Wäg
TTITLE9=Alles Nur Um S Glich
TTITLE10=Godzwilla
TTITLE11=Expandit
TTITLE12=Pulse
TTITLE13=Hold My Hand
TTITLE14=Mars Me
TTITLE15=In Pluto Face
EXTD=
EXTT0=
EXTT1=
EXTT2=
EXTT3=
EXTT4=
EXTT5=
EXTT6=
EXTT7=
EXTT8=
EXTT9=
EXTT10=
EXTT11=
EXTT12=
EXTT13=
EXTT14=
EXTT15=
PLAYORDER=
